<?xml version="1.0" encoding="UTF-8"?>
<!-- Created with Inkscape (http://www.inkscape.org/) -->
<svg width="80.83mm" height="90.512mm" version="1.1" viewBox="0 0 80.83 90.512" xmlns="http://www.w3.org/2000/svg" xmlns:cc="http://creativecommons.org/ns#" xmlns:dc="http://purl.org/dc/elements/1.1/" xmlns:rdf="http://www.w3.org/1999/02/22-rdf-syntax-ns#">
 <metadata>
  <rdf:RDF>
   <cc:Work rdf:about="">
    <dc:format>image/svg+xml</dc:format>
    <dc:type rdf:resource="http://purl.org/dc/dcmitype/StillImage"/>
    <dc:title/>
   </cc:Work>
  </rdf:RDF>
 </metadata>
 <g transform="translate(-14.364 -11.114)">
  <g transform="translate(-28.063 -89.001)">
   <path d="m105.83 128.44v7.3903h3.6184c3.8677 0 6.9814 3.1137 6.9814 6.9814v16.384c0 3.8677-3.1137 6.9814-6.9814 6.9814h-3.6184v7.39h5.6787c6.5065 0 11.745-5.2382 11.745-11.745v-21.637c0-6.5065-5.2381-11.745-11.745-11.745z" fill="#f2f2f2" stroke-width=".099406"/>
   <path d="m105.83 128.44v7.3903h3.1131v-7.3903zm0 37.737v7.39h3.1131v-7.39z" fill="#b2b2b2" fill-opacity=".24706" stroke-width=".15565"/>
   <rect x="47.656" y="111.38" width="58.177" height="79.247" ry="7.3901" fill="#f2f2f2" stroke-width=".15565"/>
   <rect x="54.409" y="117.46" width="45" height="62.895" rx="12.988" ry="11.164" fill="#F5B543" stroke-width=".12196"/>
   <path d="m87.342 102.95a9.2575 10.25 0 0 0-8.11 5.3098 9.2575 10.25 0 0 0-2.9659-0.55101 9.2575 10.25 0 0 0-3.5585 0.79767 9.2575 10.25 0 0 0-7.8483-4.8243 9.2575 10.25 0 0 0-7.7914 4.7347 9.2575 10.25 0 0 0-4.4419-1.257 9.2575 10.25 0 0 0-9.2575 10.25 9.2575 10.25 0 0 0 9.2575 10.25 9.2575 10.25 0 0 0 3.897-0.96542 9.2575 10.25 0 0 0 7.8403 4.809 9.2575 10.25 0 0 0 7.6373-4.4569 9.2575 10.25 0 0 0 4.2655 1.1625 9.2575 10.25 0 0 0 2.7581-0.4774 9.2575 10.25 0 0 0 8.9791 7.7987 9.2575 10.25 0 0 0 8.3718-5.904 9.2575 10.25 0 0 0 3.5307 0.77892 9.2575 10.25 0 0 0 9.2575-10.25 9.2575 10.25 0 0 0-9.2575-10.25 9.2575 10.25 0 0 0-3.5908 0.8136 9.2575 10.25 0 0 0-8.973-7.769z" fill="#b3b3b3" fill-opacity=".31858" opacity=".771" stroke-width=".1722"/>
   <path d="m87.659 100.11a9.5226 10.543 0 0 0-8.3422 5.4618 9.5226 10.543 0 0 0-3.0508-0.56679 9.5226 10.543 0 0 0-3.6604 0.82051 9.5226 10.543 0 0 0-8.073-4.9624 9.5226 10.543 0 0 0-8.0144 4.8703 9.5226 10.543 0 0 0-4.5691-1.293 9.5226 10.543 0 0 0-9.5226 10.543 9.5226 10.543 0 0 0 9.5226 10.543 9.5226 10.543 0 0 0 4.0085-0.99306 9.5226 10.543 0 0 0 8.0647 4.9467 9.5226 10.543 0 0 0 7.856-4.5845 9.5226 10.543 0 0 0 4.3876 1.1958 9.5226 10.543 0 0 0 2.8371-0.49107 9.5226 10.543 0 0 0 9.2362 8.022 9.5226 10.543 0 0 0 8.6115-6.073 9.5226 10.543 0 0 0 3.6317 0.80122 9.5226 10.543 0 0 0 9.5226-10.543 9.5226 10.543 0 0 0-9.5226-10.543 9.5226 10.543 0 0 0-3.6936 0.83689 9.5226 10.543 0 0 0-9.23-7.9914z" fill="#f2f2f2" stroke-width=".17713"/>
  </g>
 </g>
</svg>
